<svg xmlns="http://www.w3.org/2000/svg" width="32" height="32" fill="none" stroke="#006bff" stroke-width="2" xmlns:v="https://vecta.io/nano"><path d="M29 24.658v2a4 4 0 0 1-4 4H5a4 4 0 0 1-4-4v-14a4 4 0 0 1 4-4h20a4 4 0 0 1 4 4v2m-4-6l-3.105-6.211a2 2 0 0 0-2.684-.894L5 8.658" stroke-linecap="round" stroke-linejoin="round"/><path d="M29 24.658a2 2 0 0 0 2-2v-6a2 2 0 0 0-2-2h-5a5 5 0 0 0-5 5 5 5 0 0 0 5 5h5z" stroke-linejoin="round"/><path d="M24 19.158a.5.5 0 0 1 .462.309.5.5 0 0 1-.108.545.5.5 0 0 1-.545.108.5.5 0 0 1-.309-.462.5.5 0 0 1 .5-.5" stroke-linecap="round" stroke-linejoin="round"/></svg>