<svg xmlns="http://www.w3.org/2000/svg" xmlns:xlink="http://www.w3.org/1999/xlink" width="32" height="32" fill="none" xmlns:v="https://vecta.io/nano"><g stroke="#006bff" stroke-width="2" stroke-linejoin="round"><path d="M20 31h-8l1-6h6l1 6z"/><path d="M9 31h14" stroke-linecap="round"/><path d="M1 1H31V25H1V1Z"/><path d="M1 21H31" stroke-linecap="round"/></g><g fill="#006bff"><path d="M17.798 12.955c-.412.366-.927.822-1.863.822h-.558c-.677 0-1.29-.245-1.732-.691-.429-.434-.667-1.031-.667-1.678v-.764c0-.648.238-1.242.667-1.678.439-.446 1.055-.691 1.732-.691h.558c.936 0 1.451.456 1.863.822.429.378.798.708 1.783.708a2.73 2.73 0 0 0 .449-.036 3.52 3.52 0 0 0-.209-.437l-.66-1.14c-.604-1.048-1.722-1.693-2.93-1.693h-1.317c-1.208 0-2.326.645-2.93 1.693l-.66 1.14c-.604 1.048-.604 2.336 0 3.384l.66 1.14c.604 1.048 1.722 1.693 2.93 1.693h1.317c1.208 0 2.326-.645 2.93-1.693l.66-1.14a3.41 3.41 0 0 0 .206-.425c-.143-.034-.294-.046-.446-.046-.985.002-1.354.33-1.783.711zm-1.86-3.988h-.558c-1.028 0-1.705.735-1.705 1.676v.764c0 .941.677 1.676 1.705 1.676h.558c1.499 0 1.383-1.528 3.646-1.528.216 0 .432.019.64.058a3.42 3.42 0 0 0 0-1.176 3.48 3.48 0 0 1-.64.058c-2.266 0-2.147-1.528-3.646-1.528z"/><path d="M21.522 12.171c-.386-.286-.829-.471-1.3-.558a3.62 3.62 0 0 1-.192.672 2.47 2.47 0 0 1 1.074.442 5.74 5.74 0 0 1-.81 1.649c-.352.495-.776.931-1.261 1.298-1.009.757-2.212 1.157-3.478 1.157-.784 0-1.545-.153-2.258-.456-.691-.294-1.312-.711-1.846-1.244s-.951-1.155-1.244-1.846c-.303-.716-.456-1.475-.456-2.258s.153-1.545.456-2.258c.293-.691.711-1.312 1.244-1.846s1.155-.951 1.846-1.244c.716-.303 1.475-.456 2.258-.456 1.266 0 2.469.4 3.478 1.157a5.77 5.77 0 0 1 1.261 1.298 5.71 5.71 0 0 1 .808 1.64c-.311.238-.677.388-1.072.451a3.47 3.47 0 0 1 .189.66c.473-.078.917-.264 1.302-.548a.62.62 0 0 0 .243-.769 6.5 6.5 0 0 0-12.708 1.916 6.5 6.5 0 0 0 6.498 6.498c2.923 0 5.395-1.928 6.209-4.582a.62.62 0 0 0-.243-.771z"/></g><g fill="#0ae9ef"><use xlink:href="#B"/><use xlink:href="#B"/></g><defs ><path id="B" d="M20.032 9.768a2.73 2.73 0 0 1-.449.036c-.985 0-1.356-.327-1.783-.708-.412-.366-.927-.822-1.863-.822h-.558c-.677 0-1.29.245-1.732.691-.429.434-.667 1.031-.667 1.678v.764c0 .648.238 1.242.667 1.679.439.446 1.055.691 1.732.691h.558c.936 0 1.451-.456 1.863-.822.429-.378.798-.708 1.783-.708a2.74 2.74 0 0 1 .449.036 3.47 3.47 0 0 0 .189-.66 2.65 2.65 0 0 0-.638-.07c-2.263 0-2.147 1.528-3.646 1.528h-.558c-1.028 0-1.705-.735-1.705-1.676v-.762c0-.941.677-1.676 1.705-1.676h.558c1.499 0 1.383 1.528 3.646 1.528.216 0 .432-.019.64-.058a3.55 3.55 0 0 0-.192-.67z"/></defs></svg>